<?xml version="1.0" encoding="utf-8"?>
<!-- Generator: Adobe Illustrator 19.2.1, SVG Export Plug-In . SVG Version: 6.00 Build 0)  -->
<svg version="1.1" id="Camada_1" xmlns="http://www.w3.org/2000/svg" xmlns:xlink="http://www.w3.org/1999/xlink" x="0px" y="0px"
	 viewBox="0 0 164.3 158.7" style="enable-background:new 0 0 164.3 158.7;" xml:space="preserve">
<style type="text/css">
	.st0{fill:#FFFFFF;}
</style>
<g>
	<path class="st0" d="M163.5,67.1c-1.5-1.3-3,0.3-3,0.3c-3.2,3.4-14.5,13.2-18.3,13.2c-1.5,0-3.4-0.8-3.4-2.5c0-2.3,1.9-6.5,3-9.9
		l16.8-49.3c1.1-3,2.1-7,2.1-10.3c0-4.6-1.9-8.6-8.4-8.6c-20,0-51.6,35.3-62.9,49.7H89l10.1-31.4c1.3-3.8,2.3-8,2.3-11.4
		c0-4-2.9-6.9-9.4-6.9C73.2,0,42.1,34.7,32,49.2h-0.4l10.9-31.8c0.8-2.5,2.3-6.5,2.3-10.1c0-4-2.1-7.3-7.2-7.3
		C23.8,0,9,16.8,1.1,26.7c0,0-2.1,2.5-0.4,3.9c1.9,1.6,3.6-0.1,3.6-0.1l5.7-6.3c3.8-3.8,7.8-7.4,12.2-7.4c2.5,0,3.4,1.9,3.4,4.2
		c0,1.9-0.6,4-0.8,5.2L2.7,92.5c-0.5,2.4,4,3.7,6.1,3.7c5.3,0,7.8-1.6,8.4-3.3l3.8-11c5.7-16,14.7-30.5,26.3-42.9
		c6.7-7.4,19.4-22.1,30.7-22.1c2.9,0,4,2.3,4,5.3c0,5.5-2.9,13.5-3.6,15.6L60.1,92.6c-0.4,1.7,1.5,4.1,7.2,4.1
		c5.3,0,6.7-1.8,7.4-3.7l3.5-8.6C84,69.2,89.9,58.3,99.7,46.1c6.7-8.2,25.9-29.5,36.8-29.5c2.3,0,4.8,1.7,4.8,5
		c0,2.1-1.3,5.7-2.3,8.6l-17,48.8c-1.5,4.2-2.6,7.5-2.6,9.9c0,5.4,3.8,7.1,7.8,7.1c11.5,0,21.5-9.5,29.7-18.5l6.5-7.2
		C163.5,70.5,165.3,68.6,163.5,67.1z"/>
	<rect x="4" y="123.6" class="st0" width="145.5" height="35.1"/>
</g>
</svg>
