<?xml version="1.0" encoding="utf-8"?>
<!-- Generator: Adobe Illustrator 19.2.1, SVG Export Plug-In . SVG Version: 6.00 Build 0)  -->
<svg version="1.1" id="Camada_1" xmlns="http://www.w3.org/2000/svg" xmlns:xlink="http://www.w3.org/1999/xlink" x="0px" y="0px"
	 viewBox="0 0 443 34.5" style="enable-background:new 0 0 443 34.5;" xml:space="preserve">
<style type="text/css">
	.st0{fill:#FFFFFF;}
</style>
<path class="st0" d="M21.1,3.2c-2-1.4-4.8-2.1-8.4-2.1H0.8c-0.3,0-0.5,0.2-0.5,0.5v1.3c0,0.3,0.2,0.5,0.5,0.5C4,3.7,4.2,3.7,4.2,7.6
	v19.2c0,3.7-0.2,3.9-3.7,4.2C0.2,31,0,31.2,0,31.5v1.3c0,0.3,0.2,0.5,0.5,0.5h13c0.3,0,0.5-0.2,0.5-0.5v-1.3c0-0.3-0.2-0.5-0.5-0.5
	c-4.2-0.3-4.3-0.3-4.3-4.1v-7l3,0.7h0.1h2.3c4.8-0.6,9.8-3.6,9.8-10.3C24.4,7.2,23.3,4.8,21.1,3.2z M18.9,10.5c0,6.8-5,7.3-6.5,7.3
	c-1.2,0-2.3-0.3-2.9-0.4V6c0-1.2,0.1-1.7,0.3-1.9L9.9,4c0.1-0.1,0.8-0.4,2.3-0.4C16.4,3.6,18.9,6.2,18.9,10.5z"/>
<path class="st0" d="M53.5,0.3c-10.8,0-16.6,8.9-16.6,17.2C36.9,26.9,43.8,34,53,34c9.7,0,16.5-7.1,16.5-17.2
	C69.5,7.5,62.6,0.4,53.5,0.3z M63.6,18.1c0,9.1-4.8,13.2-9.6,13.2c-6.5,0-11.2-6.4-11.2-15.1c0-9,4.9-13.1,9.7-13.1
	C58,3.1,63.6,7.7,63.6,18.1z"/>
<path class="st0" d="M93.9,14.5l-0.1-0.1c-4-2.1-5.8-3.6-5.8-6.7c0-2.2,1.3-4.8,4.8-4.8c3.8,0,4.9,2.9,5.8,6
	c0.1,0.2,0.3,0.4,0.6,0.4l1.4-0.2c0.3,0,0.5-0.3,0.4-0.6c-0.3-2.3-0.5-3.9-0.7-5.3L100.1,2c0-0.2-0.2-0.4-0.3-0.4
	c-1.4-0.5-3.7-1.1-6.2-1.1c-5.2,0-10.4,3.1-10.4,9c0,5.7,4.8,8.2,8,9.9l0.1,0.1c3.7,2.1,5.9,3.5,5.9,6.8s-2,5.3-5.3,5.3
	c-4.7,0-6.7-4.7-7.4-7.4c-0.1-0.3-0.3-0.4-0.6-0.4l-1.4,0.3c-0.3,0.1-0.4,0.3-0.4,0.6c0.1,1,0.8,6.3,1.3,7.5
	c0.1,0.1,0.2,0.2,0.3,0.3c0.1,0.1,0.3,0.1,0.5,0.2c0.4,0.2,1.1,0.5,2,0.8h0.2c1.2,0.3,2.7,0.7,4.7,0.7c6.4,0,11.2-4.1,11.2-9.6
	C102.3,18.9,97.6,16.5,93.9,14.5z"/>
<path class="st0" d="M140.6,0h-1c-0.2,0-0.3,0.1-0.4,0.2c-0.6,0.8-0.9,1-2,1h-19c-1.2,0-1.6-0.1-2.2-1c-0.1-0.1-0.3-0.2-0.4-0.2h-1
	c-0.3,0-0.5,0.2-0.5,0.5c-0.1,1.7-0.2,3.6-0.4,5.5c-0.1,1-0.2,2.1-0.2,3.1c0,0.1,0,0.3,0.1,0.4c0.1,0.1,0.2,0.2,0.4,0.2h1.4
	c0.2,0,0.4-0.2,0.5-0.4c0.5-2.1,0.9-3.4,1.4-4.1c0.5-0.9,1.2-1.3,5.2-1.3h2.5V27c0,3.5-0.1,3.8-4.3,4.1c-0.3,0-0.5,0.2-0.5,0.5v1.3
	c0,0.3,0.2,0.5,0.5,0.5h13.8c0.3,0,0.5-0.2,0.5-0.5v-1.3c0-0.3-0.2-0.5-0.5-0.5c-4.3-0.3-4.4-0.6-4.4-4.1V3.7h2.9
	c3.6,0,4.1,0.3,4.8,1.3c0.6,0.9,1,2.2,1.4,4.1c0,0.2,0.3,0.4,0.5,0.4h1.4c0.1,0,0.3-0.1,0.4-0.2c0.1-0.1,0.1-0.2,0.1-0.4
	c-0.3-2.7-0.5-6.2-0.5-8.4C141.1,0.2,140.9,0,140.6,0z"/>
<g>
	<path class="st0" d="M191.2,9.4c0,1.1-0.4,2.1-1.2,2.7s-2,1-3.5,1c-1.4,0-2.6-0.3-3.6-0.8V9.8c0.9,0.4,1.6,0.7,2.2,0.8
		c0.6,0.2,1.1,0.2,1.6,0.2c0.6,0,1-0.1,1.4-0.3c0.3-0.2,0.5-0.6,0.5-1c0-0.2-0.1-0.5-0.2-0.7c-0.1-0.2-0.3-0.4-0.6-0.6
		c-0.3-0.2-0.8-0.5-1.6-0.9c-0.8-0.4-1.4-0.7-1.8-1.1s-0.7-0.7-0.9-1.2c-0.2-0.4-0.3-1-0.3-1.6c0-1.1,0.4-2,1.1-2.7s1.8-1,3.2-1
		c0.7,0,1.3,0.1,1.9,0.2c0.6,0.2,1.2,0.4,1.9,0.7L190.3,3c-0.7-0.3-1.2-0.5-1.7-0.6s-0.9-0.2-1.3-0.2c-0.5,0-0.9,0.1-1.2,0.4
		s-0.4,0.5-0.4,0.9c0,0.2,0.1,0.4,0.2,0.6c0.1,0.2,0.3,0.3,0.5,0.5c0.2,0.2,0.8,0.5,1.7,0.9c1.2,0.6,2,1.1,2.4,1.7
		S191.2,8.6,191.2,9.4z"/>
	<path class="st0" d="M193.5,12.9V0.2h2.7v12.7H193.5z"/>
	<path class="st0" d="M207,9.4c0,1.1-0.4,2.1-1.2,2.7s-2,1-3.5,1c-1.4,0-2.6-0.3-3.6-0.8V9.8c0.9,0.4,1.6,0.7,2.2,0.8
		c0.6,0.2,1.1,0.2,1.6,0.2c0.6,0,1-0.1,1.4-0.3c0.3-0.2,0.5-0.6,0.5-1c0-0.2-0.1-0.5-0.2-0.7c-0.1-0.2-0.3-0.4-0.6-0.6
		c-0.3-0.2-0.8-0.5-1.6-0.9c-0.8-0.4-1.4-0.7-1.8-1.1s-0.7-0.7-0.9-1.2c-0.2-0.4-0.3-1-0.3-1.6c0-1.1,0.4-2,1.1-2.7s1.8-1,3.2-1
		c0.7,0,1.3,0.1,1.9,0.2c0.6,0.2,1.2,0.4,1.9,0.7L206,3c-0.7-0.3-1.2-0.5-1.7-0.6s-0.9-0.2-1.3-0.2c-0.5,0-0.9,0.1-1.2,0.4
		s-0.4,0.5-0.4,0.9c0,0.2,0.1,0.4,0.2,0.6c0.1,0.2,0.3,0.3,0.5,0.5c0.2,0.2,0.8,0.5,1.7,0.9c1.2,0.6,2,1.1,2.4,1.7S207,8.6,207,9.4z
		"/>
	<path class="st0" d="M214.2,12.9h-2.7V2.4H208V0.2h9.6v2.2h-3.5V12.9z"/>
	<path class="st0" d="M226.9,12.9h-7.3V0.2h7.3v2.2h-4.6v2.8h4.3v2.2h-4.3v3.3h4.6V12.9z"/>
	<path class="st0" d="M235,12.9l-3.1-10h-0.1c0.1,2,0.2,3.4,0.2,4.1v5.9h-2.4V0.2h3.7l3,9.7h0.1l3.2-9.7h3.7v12.7h-2.5v-6
		c0-0.3,0-0.6,0-1c0-0.4,0-1.4,0.1-3h-0.1l-3.3,10H235z"/>
	<path class="st0" d="M254.2,12.9l-0.9-3h-4.6l-0.9,3h-2.9l4.5-12.8h3.3l4.5,12.8H254.2z M252.6,7.6c-0.9-2.7-1.3-4.3-1.4-4.7
		c-0.1-0.4-0.2-0.6-0.2-0.9c-0.2,0.7-0.7,2.6-1.6,5.5H252.6z"/>
	<path class="st0" d="M273.9,6.4c0,2.1-0.6,3.7-1.8,4.8s-2.9,1.7-5.2,1.7h-3.6V0.2h4c2.1,0,3.7,0.5,4.8,1.6
		C273.3,2.9,273.9,4.5,273.9,6.4z M271.1,6.5c0-2.7-1.2-4.1-3.6-4.1H266v8.3h1.2C269.8,10.7,271.1,9.3,271.1,6.5z"/>
	<path class="st0" d="M283.9,12.9h-7.3V0.2h7.3v2.2h-4.6v2.8h4.3v2.2h-4.3v3.3h4.6V12.9z"/>
	<path class="st0" d="M296,5.8h5.1v6.6c-0.8,0.3-1.6,0.5-2.3,0.6c-0.7,0.1-1.5,0.2-2.2,0.2c-1.9,0-3.4-0.6-4.4-1.7
		c-1-1.1-1.5-2.8-1.5-4.9c0-2.1,0.6-3.7,1.8-4.8c1.2-1.1,2.8-1.7,4.9-1.7c1.3,0,2.6,0.3,3.8,0.8L300.1,3c-0.9-0.5-1.9-0.7-2.9-0.7
		c-1.2,0-2.1,0.4-2.8,1.2c-0.7,0.8-1.1,1.8-1.1,3.2c0,1.4,0.3,2.4,0.8,3.2c0.6,0.7,1.4,1.1,2.5,1.1c0.6,0,1.1-0.1,1.7-0.2V8H296V5.8
		z"/>
	<path class="st0" d="M311.4,12.9h-7.3V0.2h7.3v2.2h-4.6v2.8h4.3v2.2h-4.3v3.3h4.6V12.9z"/>
	<path class="st0" d="M316.7,8v4.9H314V0.2h3.7c1.7,0,3,0.3,3.8,0.9s1.2,1.6,1.2,2.9c0,0.7-0.2,1.4-0.6,2s-1,1-1.8,1.4
		c1.9,2.9,3.2,4.7,3.7,5.5h-3l-3-4.9H316.7z M316.7,5.9h0.9c0.9,0,1.5-0.1,1.9-0.4c0.4-0.3,0.6-0.7,0.6-1.3c0-0.6-0.2-1-0.6-1.3
		s-1.1-0.4-1.9-0.4h-0.8V5.9z"/>
	<path class="st0" d="M333.1,12.9h-7.3V0.2h7.3v2.2h-4.6v2.8h4.3v2.2h-4.3v3.3h4.6V12.9z"/>
	<path class="st0" d="M347.1,12.9h-3.4l-5.5-9.6H338c0.1,1.7,0.2,2.9,0.2,3.6v6h-2.4V0.2h3.4l5.5,9.5h0.1c-0.1-1.7-0.1-2.8-0.1-3.5
		v-6h2.4V12.9z"/>
	<path class="st0" d="M355.7,2.3c-1,0-1.8,0.4-2.4,1.1s-0.8,1.8-0.8,3.2c0,2.8,1.1,4.3,3.2,4.3c0.9,0,2-0.2,3.2-0.7v2.3
		c-1,0.4-2.2,0.7-3.5,0.7c-1.9,0-3.3-0.6-4.2-1.7c-1-1.1-1.5-2.7-1.5-4.8c0-1.3,0.2-2.5,0.7-3.5c0.5-1,1.2-1.8,2.1-2.3
		s2-0.8,3.2-0.8c1.2,0,2.5,0.3,3.7,0.9l-0.9,2.2c-0.5-0.2-1-0.4-1.4-0.6C356.6,2.3,356.2,2.3,355.7,2.3z"/>
	<path class="st0" d="M361.7,12.9V0.2h2.7v12.7H361.7z"/>
	<path class="st0" d="M375.4,12.9l-0.9-3h-4.6l-0.9,3H366l4.5-12.8h3.3l4.5,12.8H375.4z M373.8,7.6c-0.9-2.7-1.3-4.3-1.4-4.7
		s-0.2-0.6-0.2-0.9c-0.2,0.7-0.7,2.6-1.6,5.5H373.8z"/>
	<path class="st0" d="M385.3,12.9l-3.1-10h-0.1c0.1,2,0.2,3.4,0.2,4.1v5.9h-2.4V0.2h3.7l3,9.7h0.1l3.2-9.7h3.7v12.7H391v-6
		c0-0.3,0-0.6,0-1c0-0.4,0-1.4,0.1-3H391l-3.3,10H385.3z"/>
	<path class="st0" d="M404,12.9h-7.3V0.2h7.3v2.2h-4.6v2.8h4.3v2.2h-4.3v3.3h4.6V12.9z"/>
	<path class="st0" d="M418,12.9h-3.4L409,3.3h-0.1c0.1,1.7,0.2,2.9,0.2,3.6v6h-2.4V0.2h3.4l5.5,9.5h0.1c-0.1-1.7-0.1-2.8-0.1-3.5v-6
		h2.4V12.9z"/>
	<path class="st0" d="M426.1,12.9h-2.7V2.4h-3.5V0.2h9.6v2.2h-3.5V12.9z"/>
	<path class="st0" d="M443,6.5c0,2.1-0.5,3.7-1.6,4.9s-2.5,1.7-4.5,1.7s-3.4-0.6-4.5-1.7c-1-1.1-1.6-2.8-1.6-4.9s0.5-3.7,1.6-4.9
		S435,0,437,0s3.5,0.6,4.5,1.7C442.5,2.8,443,4.4,443,6.5z M433.8,6.5c0,1.4,0.3,2.5,0.8,3.2c0.5,0.7,1.3,1.1,2.4,1.1
		c2.2,0,3.2-1.4,3.2-4.3c0-2.9-1.1-4.3-3.2-4.3c-1.1,0-1.9,0.4-2.4,1.1C434,4.1,433.8,5.1,433.8,6.5z"/>
	<path class="st0" d="M194.3,27.8c0,2.1-0.6,3.7-1.8,4.8c-1.2,1.1-2.9,1.7-5.2,1.7h-3.6V21.6h4c2.1,0,3.7,0.5,4.8,1.6
		C193.7,24.3,194.3,25.9,194.3,27.8z M191.5,27.9c0-2.7-1.2-4.1-3.6-4.1h-1.4v8.3h1.2C190.2,32.1,191.5,30.7,191.5,27.9z"/>
	<path class="st0" d="M204.2,34.3h-7.3V21.6h7.3v2.2h-4.6v2.8h4.3v2.2h-4.3v3.3h4.6V34.3z"/>
	<path class="st0" d="M216.9,23.7c-1,0-1.8,0.4-2.4,1.1c-0.6,0.8-0.8,1.8-0.8,3.2c0,2.8,1.1,4.3,3.2,4.3c0.9,0,2-0.2,3.2-0.7v2.3
		c-1,0.4-2.2,0.7-3.5,0.7c-1.9,0-3.3-0.6-4.2-1.7c-1-1.1-1.5-2.7-1.5-4.8c0-1.3,0.2-2.5,0.7-3.5s1.2-1.8,2.1-2.3s2-0.8,3.2-0.8
		c1.2,0,2.5,0.3,3.7,0.9l-0.9,2.2c-0.5-0.2-1-0.4-1.4-0.6C217.9,23.7,217.4,23.7,216.9,23.7z"/>
	<path class="st0" d="M234.4,27.9c0,2.1-0.5,3.7-1.6,4.9c-1,1.1-2.5,1.7-4.5,1.7c-2,0-3.4-0.6-4.5-1.7c-1-1.1-1.6-2.8-1.6-4.9
		s0.5-3.7,1.6-4.9c1-1.1,2.5-1.7,4.5-1.7c2,0,3.5,0.6,4.5,1.7C233.9,24.2,234.4,25.8,234.4,27.9z M225.2,27.9c0,1.4,0.3,2.5,0.8,3.2
		s1.3,1.1,2.4,1.1c2.2,0,3.2-1.4,3.2-4.3c0-2.9-1.1-4.3-3.2-4.3c-1.1,0-1.9,0.4-2.4,1.1C225.4,25.5,225.2,26.5,225.2,27.9z"/>
	<path class="st0" d="M248.4,34.3h-3.4l-5.5-9.6h-0.1c0.1,1.7,0.2,2.9,0.2,3.6v6h-2.4V21.6h3.4l5.5,9.5h0.1
		c-0.1-1.7-0.1-2.8-0.1-3.5v-6h2.4V34.3z"/>
	<path class="st0" d="M256.5,34.3h-2.7V23.8h-3.5v-2.2h9.6v2.2h-3.5V34.3z"/>
	<path class="st0" d="M269.2,34.3h-7.3V21.6h7.3v2.2h-4.6v2.8h4.3v2.2h-4.3v3.3h4.6V34.3z"/>
	<path class="st0" d="M282.3,21.6v8.2c0,0.9-0.2,1.8-0.6,2.5c-0.4,0.7-1,1.3-1.8,1.6c-0.8,0.4-1.7,0.6-2.8,0.6
		c-1.6,0-2.9-0.4-3.8-1.3c-0.9-0.8-1.4-2-1.4-3.4v-8.2h2.7v7.8c0,1,0.2,1.7,0.6,2.2s1,0.7,2,0.7c0.9,0,1.5-0.2,1.9-0.7
		s0.6-1.2,0.6-2.2v-7.8H282.3z M275.5,20.6v-0.2c1-1.2,1.7-2,2-2.6h3v0.2c-0.3,0.3-0.8,0.8-1.5,1.3c-0.7,0.6-1.3,1-1.7,1.3H275.5z"
		/>
	<path class="st0" d="M295.9,27.8c0,2.1-0.6,3.7-1.8,4.8c-1.2,1.1-2.9,1.7-5.2,1.7h-3.6V21.6h4c2.1,0,3.7,0.5,4.8,1.6
		C295.4,24.3,295.9,25.9,295.9,27.8z M293.1,27.9c0-2.7-1.2-4.1-3.6-4.1h-1.4v8.3h1.2C291.8,32.1,293.1,30.7,293.1,27.9z"/>
	<path class="st0" d="M310.1,27.9c0,2.1-0.5,3.7-1.6,4.9c-1,1.1-2.5,1.7-4.5,1.7c-2,0-3.4-0.6-4.5-1.7c-1-1.1-1.6-2.8-1.6-4.9
		s0.5-3.7,1.6-4.9c1-1.1,2.5-1.7,4.5-1.7s3.5,0.6,4.5,1.7C309.6,24.2,310.1,25.8,310.1,27.9z M300.8,27.9c0,1.4,0.3,2.5,0.8,3.2
		c0.5,0.7,1.3,1.1,2.4,1.1c2.2,0,3.2-1.4,3.2-4.3c0-2.9-1.1-4.3-3.2-4.3c-1.1,0-1.9,0.4-2.4,1.1S300.8,26.5,300.8,27.9z"/>
</g>
</svg>
