<?xml version="1.0" encoding="utf-8"?>
<!-- Generator: Adobe Illustrator 19.2.1, SVG Export Plug-In . SVG Version: 6.00 Build 0)  -->
<svg version="1.1" id="Camada_1" xmlns="http://www.w3.org/2000/svg" xmlns:xlink="http://www.w3.org/1999/xlink" x="0px" y="0px"
	 viewBox="0 0 233.3 67.7" style="enable-background:new 0 0 233.3 67.7;" xml:space="preserve">
<style type="text/css">
	.st0{fill:#FFFFFF;}
</style>
<g>
	<path class="st0" d="M28.8,2.6c3.6,0.3,4.2,1.8,4.2,8.8V21c0,8.2,0,17.1-11.4,17.1c-6.3,0-11-3-11-10.6V5.3c0-2,1.5-2.6,3.2-2.7v-2
		H0v2c1.8,0.2,3.5,0.8,3.5,2.9V28c0,9.5,6.3,13.5,16.8,13.5c11.9,0,16.4-7.2,16.4-16.6V8.2c0-4.4,1.5-5.5,3.6-5.7v-2H28.8V2.6z"/>
	<path class="st0" d="M72.9,0.6c-4.6,0-9.1-0.1-13.7-0.1v2.2c2.5,0.2,3.9,1.1,3.9,3.5v29.7c0,2.5-1.4,3.3-3.9,3.5v2h16l0-1.9
		c-3.4-0.1-5-1.1-5-5.2V21.1h7.7c3.6,0,5.1,0.3,5.6,2.5h1.7v-7.9h-1.6c-0.6,2.7-2.4,2.8-5.7,2.8h-7.7V3h8.8c6,0,8.2,0.5,9.3,3.8h2.2
		l-0.2-6.5C85.4,0.5,80.6,0.6,72.9,0.6z"/>
	<path class="st0" d="M220.5,24.2v2c3,0.5,3.4,2,3.4,5.6c0,1.1-0.2,5.6-0.2,6.3c-1.9,0.8-3.8,1.3-5.8,1.3c-13,0-17.3-10.7-17.3-18.3
		c0-13.1,7.5-18.5,16.5-18.5c7.1,0,9.7,3.3,11.6,7h2.7l-0.5-7.5c-1.1-0.2-6.5-1.2-7.5-1.4c-3.9-0.5-5.6-0.7-7.7-0.7
		c-12.8,0-23,8.3-23,21.3c0,11.4,9.2,20.7,22.4,20.7c5.9,0,11.3-1.3,15.4-2.4l0-7.8v-2.6c0-2.3,0.6-3,2.9-3.2v-1.9H220.5z"/>
	<path class="st0" d="M175,29.3c-1.3,1.4-6.1,5.6-7.7,5.6c-0.6,0-1.4-0.3-1.4-1.1c0-1,0.8-2.7,1.2-4.2l7.1-20.7
		c0.5-1.2,0.9-2.9,0.9-4.3c0-2-0.8-3.6-3.5-3.6c-8.4,0-21.7,14.9-26.5,20.9h-0.2l4.3-13.2c0.5-1.6,1-3.4,1-4.8c0-1.7-1.2-2.9-4-2.9
		c-7.9,0-21,14.6-25.2,20.7h-0.2l4.6-13.4c0.4-1.1,1-2.7,1-4.3c0-1.7-0.9-3.1-3-3.1c-5.9,0-12.1,7.1-15.4,11.2c0,0-0.9,1-0.2,1.6
		c0.8,0.7,1.5,0,1.5,0l2.4-2.7c1.6-1.6,3.3-3.1,5.1-3.1c1.1,0,1.4,0.8,1.4,1.8c0,0.8-0.3,1.7-0.4,2.2l-9.2,27.9
		c-0.2,1,1.7,1.6,2.6,1.6c2.2,0,3.3-0.7,3.5-1.4l1.6-4.7c2.4-6.7,6.2-12.8,11.1-18.1c2.8-3.1,8.1-9.3,12.9-9.3c1.2,0,1.7,1,1.7,2.2
		c0,2.3-1.2,5.7-1.5,6.6l-7.8,23.1c-0.2,0.7,0.6,1.7,3,1.7c2.2,0,2.8-0.8,3.1-1.6l1.5-3.6c2.5-6.4,5-11,9.1-16.1
		c2.8-3.5,10.9-12.4,15.5-12.4c1,0,2,0.7,2,2.1c0,0.9-0.5,2.4-1,3.6l-7.2,20.6c-0.6,1.8-1.1,3.2-1.1,4.2c0,2.3,1.6,3,3.3,3
		c4.9,0,9-4,12.5-7.8l2.7-3c0,0,0.8-0.8,0-1.4C175.6,28.6,175,29.3,175,29.3z"/>
	<rect x="109.1" y="53" class="st0" width="61.3" height="14.8"/>
</g>
</svg>
