<?xml version="1.0" encoding="utf-8"?>
<!-- Generator: Adobe Illustrator 19.2.1, SVG Export Plug-In . SVG Version: 6.00 Build 0)  -->
<svg version="1.1" id="Camada_1" xmlns="http://www.w3.org/2000/svg" xmlns:xlink="http://www.w3.org/1999/xlink" x="0px" y="0px"
	 viewBox="0 0 653.1 53.3" style="enable-background:new 0 0 653.1 53.3;" xml:space="preserve">
<style type="text/css">
	.st0{fill:#FFFFFF;}
</style>
<path class="st0" d="M22.4,2.6c2.8,0.2,3.3,1.4,3.3,6.8v7.5c0,6.3,0,13.3-8.9,13.3c-5,0-8.6-2.3-8.6-8.2V4.6c0-1.5,1.1-2,2.5-2.1V1
	H0v1.5c1.4,0.2,2.7,0.7,2.7,2.3v17.5c0,7.4,4.9,10.5,13.1,10.6c9.3,0,12.8-5.6,12.8-13v-13c0-3.5,1.1-4.2,2.8-4.4V1h-9V2.6z"/>
<path class="st0" d="M56.9,0.9c-3.6,0-7.1,0-10.8-0.1v1.7c2,0.2,3.1,0.9,3.1,2.8v23.1c0,2-1.1,2.6-3,2.7v1.6h12.5v-1.5
	c-2.7-0.1-3.9-0.9-3.9-4.1V16.9h6c2.8,0,4,0.3,4.4,2h1.3v-6.2h-1.3c-0.4,2.2-1.8,2.2-4.4,2.2h-6v-12h6.8c4.7,0,6.4,0.4,7.3,3h1.7
	l-0.2-5.1C66.7,0.8,62.9,0.9,56.9,0.9z"/>
<path class="st0" d="M172.1,20.9c2.3,0.4,2.6,1.6,2.6,4.4c0,0.8-0.1,4.3-0.1,4.9c-1.4,0.6-2.9,1-4.5,1c-10.2,0-13.5-8.4-13.5-14.3
	c0-10.2,5.8-14.4,12.8-14.4c5.5,0,7.5,2.6,9,5.5h2.1l-0.4-5.9c-0.9-0.2-5.1-1-5.9-1.1c-3-0.4-4.3-0.6-6-0.6
	c-10,0-17.9,6.5-17.9,16.7c0,8.9,7.2,16.1,17.5,16.1c4.6,0,8.8-0.9,12-1.8v-6v-2.1c0-1.7,0.5-2.3,2.3-2.5v-1.5h-10V20.9z"/>
<path class="st0" d="M136.5,23.3c-1.1,1.1-4.8,4.4-6,4.4c-0.5,0-1.1-0.3-1.1-0.8c0-0.8,0.6-2.1,1-3.2l5.5-16.2
	c0.4-1,0.7-2.3,0.7-3.4c0-1.5-0.6-2.8-2.8-2.8c-6.6,0-16.9,11.6-20.7,16.3H113l3.3-10.3c0.4-1.2,0.8-2.6,0.8-3.7
	c0-1.3-1-2.3-3.1-2.3c-6.2,0-16.4,11.4-19.7,16.2h-0.1l3.6-10.6c0.3-0.8,0.8-2.1,0.8-3.3c0-1.3-0.7-2.4-2.4-2.4
	c-4.5,0-9.4,5.5-12,8.8c0,0-0.7,0.8-0.1,1.3c0.6,0.5,1.2,0,1.2,0l1.9-2.1c1.2-1.2,2.6-2.4,4-2.4c0.8,0,1.1,0.6,1.1,1.4
	c0,0.6-0.2,1.3-0.3,1.7l-7.2,21.7c-0.2,0.8,1.3,1.2,2,1.2c1.7,0,2.6-0.5,2.8-1.1l1.2-3.6c1.9-5.3,4.8-10,8.6-14.1
	c2.2-2.4,6.4-7.3,10.1-7.3c1,0,1.3,0.8,1.3,1.7c0,1.8-1,4.4-1.2,5.1l-6,18c-0.1,0.6,0.5,1.4,2.3,1.4c1.7,0,2.2-0.6,2.4-1.2l1.1-2.8
	c1.9-5,3.9-8.6,7.1-12.6c2.2-2.7,8.5-9.7,12.1-9.7c0.8,0,1.6,0.5,1.6,1.7c0,0.7-0.4,1.9-0.8,2.8l-5.6,16c-0.5,1.4-0.8,2.5-0.8,3.3
	c0,1.8,1.2,2.3,2.6,2.3c3.8,0,7-3.1,9.7-6.1l2.1-2.3c0,0,0.6-0.6,0-1.1C137,22.8,136.5,23.3,136.5,23.3z"/>
<rect x="85.1" y="41.8" class="st0" width="47.8" height="11.5"/>
<path class="st0" d="M214.4,0.4h-2.7c-0.2,0-0.4,0.1-0.5,0.4l-10.4,34c0,0.2,0,0.3,0.1,0.4c0.1,0.1,0.2,0.2,0.4,0.2h2.7
	c0.2,0,0.4-0.1,0.5-0.4l10.4-34c0-0.2,0-0.3-0.1-0.4S214.6,0.4,214.4,0.4z"/>
<path class="st0" d="M252,3.2c-2-1.4-4.8-2.1-8.4-2.1h-11.9c-0.3,0-0.5,0.2-0.5,0.5v1.3c0,0.3,0.2,0.5,0.5,0.5
	c3.2,0.3,3.4,0.3,3.4,4.2v19.2c0,3.7-0.2,3.9-3.7,4.2c-0.3,0-0.5,0.2-0.5,0.5v1.3c0,0.3,0.2,0.5,0.5,0.5h13c0.3,0,0.5-0.2,0.5-0.5
	v-1.3c0-0.3-0.2-0.5-0.5-0.5c-4.2-0.3-4.3-0.3-4.3-4.1v-7l3,0.7c0,0,0.1,0,0.1,0l2.3,0c4.8-0.6,9.8-3.6,9.8-10.3
	C255.3,7.2,254.2,4.8,252,3.2z M249.8,10.5c0,6.8-5,7.3-6.5,7.3c-1.2,0-2.3-0.3-2.9-0.4V6c0-1.2,0.1-1.7,0.3-1.9
	c0,0,0.1-0.1,0.1-0.1c0.1-0.1,0.8-0.4,2.3-0.4C247.3,3.6,249.8,6.2,249.8,10.5z"/>
<path class="st0" d="M284.4,0.3c-10.8,0-16.6,8.9-16.6,17.2c0,9.4,6.9,16.5,16.1,16.5c9.7,0,16.5-7.1,16.5-17.2
	C300.4,7.5,293.5,0.4,284.4,0.3z M294.5,18.1c0,9.1-4.8,13.2-9.6,13.2c-6.5,0-11.2-6.4-11.2-15.1c0-9,4.9-13.1,9.7-13.1
	C288.9,3.1,294.5,7.7,294.5,18.1z"/>
<path class="st0" d="M324.8,14.5l-0.1-0.1c-4-2.1-5.8-3.6-5.8-6.7c0-2.2,1.3-4.8,4.8-4.8c3.8,0,4.9,2.9,5.8,6
	c0.1,0.2,0.3,0.4,0.6,0.4l1.4-0.2c0.3,0,0.5-0.3,0.4-0.6c-0.3-2.3-0.5-3.9-0.7-5.3L331,2c0-0.2-0.2-0.4-0.3-0.4
	c-1.4-0.5-3.7-1.1-6.2-1.1c-5.2,0-10.4,3.1-10.4,9c0,5.7,4.8,8.2,8,9.9l0.1,0.1c3.7,2.1,5.9,3.5,5.9,6.8c0,3.3-2,5.3-5.3,5.3
	c-4.7,0-6.7-4.7-7.4-7.4c-0.1-0.3-0.3-0.4-0.6-0.4l-1.4,0.3c-0.3,0.1-0.4,0.3-0.4,0.6c0.1,1,0.8,6.3,1.3,7.5
	c0.1,0.1,0.2,0.2,0.3,0.3c0.1,0.1,0.3,0.1,0.5,0.2c0.4,0.2,1.1,0.5,2,0.8l0.2,0c1.2,0.3,2.7,0.7,4.7,0.7c6.4,0,11.2-4.1,11.2-9.6
	C333.2,18.9,328.5,16.5,324.8,14.5z"/>
<path class="st0" d="M371.5,0h-1c-0.2,0-0.3,0.1-0.4,0.2c-0.6,0.8-0.9,1-2,1h-19c-1.2,0-1.6-0.1-2.2-1c-0.1-0.1-0.3-0.2-0.4-0.2h-1
	c-0.3,0-0.5,0.2-0.5,0.5c-0.1,1.7-0.2,3.6-0.4,5.5c-0.1,1-0.2,2.1-0.2,3.1c0,0.1,0,0.3,0.1,0.4c0.1,0.1,0.2,0.2,0.4,0.2h1.4
	c0.2,0,0.4-0.2,0.5-0.4c0.5-2.1,0.9-3.4,1.4-4.1c0.5-0.9,1.2-1.3,5.2-1.3h2.5v23.1c0,3.5-0.1,3.8-4.3,4.1c-0.3,0-0.5,0.2-0.5,0.5
	v1.3c0,0.3,0.2,0.5,0.5,0.5h13.8c0.3,0,0.5-0.2,0.5-0.5v-1.3c0-0.3-0.2-0.5-0.5-0.5c-4.3-0.3-4.4-0.6-4.4-4.1V3.7h2.9
	c3.6,0,4.1,0.3,4.8,1.3c0.6,0.9,1,2.2,1.4,4.1c0,0.2,0.3,0.4,0.5,0.4h1.4c0.1,0,0.3-0.1,0.4-0.2c0.1-0.1,0.1-0.2,0.1-0.4
	c-0.3-2.7-0.5-6.2-0.5-8.4C372,0.2,371.8,0,371.5,0z"/>
<g>
	<path class="st0" d="M409.9,12.3c0.8-0.6,1.2-1.5,1.2-2.6c0-0.7,0-1.5-0.4-2.1c-0.5-0.6-1.3-1.2-2.3-1.6c-0.3-0.2-0.6-0.3-0.8-0.4
		c-0.4-0.2-0.6-0.3-0.7-0.4c-0.1-0.1-0.1-0.1-0.2-0.2c-0.1-0.1-0.2-0.2-0.3-0.3c-0.1-0.2-0.2-0.4-0.2-0.5c0-0.4,0.1-0.6,0.3-0.8
		c0.3-0.2,0.5-0.3,1-0.3c0.4,0,0.8,0.1,1.2,0.2c0.1,0,0.2,0,0.2,0.1c0.4,0.1,0.9,0.2,1.3,0.4l0.1,0.1l0.9-2.2l-0.1,0
		c-0.2-0.1-0.4-0.1-0.6-0.2c-0.4-0.2-0.8-0.3-1.2-0.4c-0.6-0.1-1.2-0.2-1.8-0.2c-1.3,0-2.4,0.3-3.1,0.9c-0.8,0.7-1.1,1.5-1.1,2.6
		c0,0.6,0.1,1.1,0.3,1.6c0.2,0.4,0.6,0.8,0.9,1.1c0.3,0.3,1,0.7,1.6,1c0.4,0.2,0.7,0.4,0.9,0.5c0.2,0.1,0.3,0.2,0.5,0.3
		c0.2,0.1,0.4,0.2,0.5,0.4c0.1,0.2,0.2,0.4,0.2,0.5c0,0.4-0.1,0.6-0.3,0.8c-0.3,0.2-0.7,0.3-1.2,0.3c-0.4,0-1,0-1.5-0.2
		c-0.2-0.1-0.3-0.1-0.5-0.2c-0.4-0.2-0.9-0.3-1.5-0.6l-0.2-0.1v2.7l0.1,0c1,0.5,2.1,0.7,3.5,0.7C407.9,13.2,409.1,12.9,409.9,12.3z"
		/>
	<polygon class="st0" points="413.5,13.1 413.6,13.1 413.6,13.1 416.2,13.1 416.2,1 413.5,1 	"/>
	<path class="st0" d="M422.1,3.4c0.3-0.2,0.5-0.3,1-0.3c0.4,0,0.8,0.1,1.2,0.2c0.1,0,0.2,0,0.2,0.1c0.4,0.1,0.9,0.2,1.3,0.4l0.1,0.1
		l0.9-2.2l-0.1,0c-0.2-0.1-0.4-0.1-0.6-0.2c-0.4-0.2-0.8-0.3-1.2-0.4c-0.6-0.1-1.2-0.2-1.8-0.2c-1.3,0-2.4,0.3-3.1,0.9
		c-0.8,0.7-1.1,1.5-1.1,2.6c0,0.6,0.1,1.2,0.2,1.6c0.2,0.4,0.6,0.8,0.9,1.1c0.3,0.3,1,0.7,1.6,1l0.3,0.2c0.6,0.3,1,0.6,1.2,0.6
		c0.2,0.1,0.4,0.2,0.5,0.4c0.1,0.2,0.2,0.4,0.2,0.5c0,0.4-0.1,0.6-0.3,0.8c-0.3,0.2-0.7,0.3-1.2,0.3c-0.4,0-1,0-1.5-0.2
		c-0.2-0.1-0.3-0.1-0.5-0.2c-0.4-0.2-0.9-0.3-1.5-0.6l-0.2-0.1v2.7l0.1,0c1,0.5,2.1,0.7,3.5,0.7c1.3,0,2.5-0.3,3.3-0.9
		c0.8-0.6,1.2-1.5,1.2-2.6c0-0.7,0-1.5-0.4-2.1C425.8,7.1,425,6.5,424,6c-0.3-0.2-0.6-0.3-0.8-0.4c-0.4-0.2-0.6-0.3-0.7-0.4
		c-0.1-0.1-0.1-0.1-0.2-0.2c-0.1-0.1-0.2-0.2-0.3-0.3c-0.1-0.2-0.2-0.4-0.2-0.5C421.7,3.8,421.8,3.6,422.1,3.4z"/>
	<polygon class="st0" points="431.2,13.2 433.9,13.2 433.9,3.3 437.1,3.3 437.1,1 427.9,1 427.9,3.3 431.2,3.3 	"/>
	<polygon class="st0" points="446.3,10.9 442,10.9 442,8 446,8 446,5.7 442,5.7 442,3.3 446.3,3.3 446.3,1 439.2,1 439.2,13.2 
		446.3,13.2 	"/>
	<path class="st0" d="M459.2,4.3c0,0.8-0.1,1.5-0.1,2.2v6.6h2.7V1h-3.6l-2.9,8.8l-2.7-8.7l0-0.1H449v12.2h2.6V7.5c0-0.4,0-1-0.1-1.9
		c0-0.4,0-0.8-0.1-1.3l2.8,8.9h2.2L459.2,4.3z"/>
	<path class="st0" d="M472.5,13.2h2.9L471.1,1h-3.3l-4.2,12.1l-0.1,0.2h3l0.9-2.8h4.2L472.5,13.2z M470.9,8h-2.8
		c0.5-1.8,0.9-3.1,1.2-4c0.1-0.2,0.1-0.4,0.2-0.5c0,0.1,0.1,0.2,0.1,0.3c0,0.2,0.2,0.5,0.4,1.1C470.2,5.5,470.5,6.6,470.9,8z"/>
	<path class="st0" d="M490.3,11.6C491.4,10.5,492,9,492,7c0-1.9-0.5-3.4-1.6-4.5c-1-1-2.6-1.5-4.6-1.5h-3.9v12.2h3.4
		C487.4,13.2,489.1,12.7,490.3,11.6z M484.7,10.9V3.3h1.2c2.2,0,3.3,1.2,3.3,3.7c0,2.6-1.1,3.9-3.5,3.9H484.7z"/>
	<polygon class="st0" points="494.7,13.2 501.8,13.2 501.8,10.9 497.5,10.9 497.5,8 501.5,8 501.5,5.7 497.5,5.7 497.5,3.3 
		501.8,3.3 501.8,1 494.7,1 	"/>
	<path class="st0" d="M518.6,12.7L518.6,12.7l0.1-6.4h-4.9v2.4h2.3v2.2c-0.6,0.1-1.1,0.2-1.5,0.2c-1,0-1.7-0.3-2.2-0.9
		c-0.5-0.7-0.8-1.7-0.8-2.9c0-1.3,0.3-2.3,1-2.9c0.6-0.7,1.5-1.1,2.5-1.1c0.8,0,1.6,0.2,2.6,0.7l0.1,0.1l0.9-2.2l-0.1,0
		c-1-0.5-2.2-0.7-3.6-0.7c-2.1,0-3.6,0.5-4.7,1.6c-1.2,1.2-1.7,2.7-1.7,4.6c0,2.1,0.5,3.6,1.4,4.7c0.9,1.1,2.3,1.6,4.2,1.6
		c0.7,0,1.4-0.1,2.1-0.2C517.1,13.1,517.8,13,518.6,12.7z"/>
	<polygon class="st0" points="521.8,13.2 528.9,13.2 528.9,10.9 524.6,10.9 524.6,8 528.6,8 528.6,5.7 524.6,5.7 524.6,3.3 
		528.9,3.3 528.9,1 521.8,1 	"/>
	<path class="st0" d="M540.2,11.1c-0.6-0.8-1.3-1.9-2.1-3.1c0.7-0.3,1.2-0.9,1.5-1.3c0.4-0.6,0.6-1.3,0.6-2c0-1.2-0.4-2.2-1.2-2.8
		c-0.8-0.6-2.1-0.9-3.7-0.9h-3.6v12.2h2.8V8.6h1.2l2.9,4.5l0,0.1h3.1l-0.1-0.2C541.2,12.6,540.8,12,540.2,11.1z M537.4,4.7
		c0,0.5-0.2,0.9-0.5,1.2c-0.3,0.3-0.9,0.4-1.7,0.4h-0.7v-3h0.7c0.6,0,1.2,0.1,1.7,0.4C537.2,3.8,537.4,4.1,537.4,4.7z"/>
	<polygon class="st0" points="543.1,13.2 550.2,13.2 550.2,10.9 545.9,10.9 545.9,8 549.9,8 549.9,5.7 545.9,5.7 545.9,3.3 
		550.2,3.3 550.2,1 543.1,1 	"/>
	<path class="st0" d="M561.3,6.7c0,0.6,0,1.5,0.1,3l-5-8.6l0-0.1h-3.4v12.2h2.5V7.5c0-0.5,0-1.1-0.1-2c0-0.3,0-0.7-0.1-1.1l5.1,8.8
		h3.5V1h-2.5V6.7z"/>
	<path class="st0" d="M572.1,3.2c0.4,0,0.9,0,1.2,0.3c0.2,0.1,0.4,0.2,0.7,0.3c0.2,0.1,0.4,0.2,0.6,0.3l0.1,0.1l0.9-2.3l-0.1,0
		C574.2,1.2,573.1,1,572,1c-1.3,0-2.3,0.2-3.1,0.7c-0.7,0.4-1.3,1-2,2.2c-0.5,1-0.7,2.1-0.7,3.4c0,1.9,0.5,3.4,1.4,4.6
		c0.9,1.1,2.3,1.6,4.1,1.6c1.2,0,2.3-0.2,3.3-0.6l0.1,0v-2.4l-0.2,0.1c-1,0.4-2.1,0.6-3,0.6c-1.9,0-2.9-1.3-2.9-3.9
		c0-1.2,0.3-2.2,0.8-2.9C570.5,3.6,571.2,3.2,572.1,3.2z"/>
	<polygon class="st0" points="578,13.1 578.1,13.1 578.1,13.1 580.7,13.1 580.7,1 578,1 	"/>
	<path class="st0" d="M586.6,1l-4.2,12.1l-0.1,0.2h3l0.9-2.8h4.2l0.9,2.8h2.9L589.9,1H586.6z M589.7,8H587c0.5-1.8,0.9-3.1,1.2-4
		c0.1-0.2,0.1-0.4,0.2-0.5c0,0.1,0.1,0.2,0.1,0.3c0,0.2,0.2,0.5,0.4,1.1C589,5.6,589.3,6.6,589.7,8z"/>
	<path class="st0" d="M602.2,9.8l-2.7-8.7l0-0.1h-3.6v12.2h2.5V7.5c0-0.4,0-1-0.1-1.9c0-0.4,0-0.8-0.1-1.3l2.8,8.9h2.2l2.9-8.9
		c0,0.8-0.1,1.5-0.1,2.2v6.6h2.6V1h-3.6L602.2,9.8z"/>
	<polygon class="st0" points="608.1,13.2 615.2,13.2 615.2,10.9 610.9,10.9 610.9,8 614.9,8 614.9,5.7 610.9,5.7 610.9,3.3 
		615.2,3.3 615.2,1 608.1,1 	"/>
	<path class="st0" d="M626.3,6.7c0,0.6,0,1.5,0.1,3l-5-8.6l0-0.1h-3.4v12.2h2.5V7.5c0-0.5,0-1.1-0.1-2c0-0.3,0-0.7-0.1-1.1l5.1,8.8
		h3.5V1h-2.5V6.7z"/>
	<polygon class="st0" points="630.8,3.3 634,3.3 634,13.2 636.8,13.2 636.8,3.3 640,3.3 640,1 630.8,1 	"/>
	<path class="st0" d="M651.6,2.4c-1-1.1-2.4-1.6-4.3-1.6S644,1.3,643,2.4c-1,1.1-1.5,2.7-1.5,4.7s0.5,3.5,1.5,4.7
		c1,1.1,2.4,1.6,4.3,1.6s3.3-0.5,4.3-1.6c1-1.1,1.5-2.7,1.5-4.7S652.6,3.6,651.6,2.4z M650.3,7.1c0,2.6-0.9,3.9-2.9,3.9
		c-1,0-1.8-0.3-2.2-0.9c-0.5-0.7-0.8-1.7-0.8-2.9c0-1.5,0.2-2.4,0.8-2.9c0.4-0.6,1.2-0.9,2.2-0.9C649.3,3.2,650.3,4.5,650.3,7.1z"/>
	<path class="st0" d="M407.8,21.1h-3.9v12.2h3.4c2.1,0,3.8-0.5,5-1.6c1.2-1.1,1.7-2.6,1.7-4.6c0-1.8-0.5-3.3-1.6-4.5
		C411.4,21.6,409.8,21.1,407.8,21.1z M411.1,27.1c0,2.6-1.2,3.9-3.5,3.9h-1v-7.5h1.2C410,23.4,411.1,24.6,411.1,27.1z"/>
	<polygon class="st0" points="416.7,33.3 423.8,33.3 423.8,31 419.5,31 419.5,28.1 423.5,28.1 423.5,25.8 419.5,25.8 419.5,23.4 
		423.8,23.4 423.8,21.1 416.7,21.1 	"/>
	<path class="st0" d="M436.4,23.2c0.4,0,0.9,0.1,1.2,0.3c0.2,0.1,0.4,0.2,0.7,0.3c0.2,0.1,0.4,0.2,0.6,0.3l0.1,0.1l0.9-2.3l-0.1,0
		c-1.3-0.6-2.4-0.8-3.5-0.8c-1.3,0-2.3,0.2-3.1,0.7c-0.8,0.4-1.4,1.1-2,2.2c-0.5,1-0.7,2.1-0.7,3.4c0,1.9,0.5,3.4,1.4,4.6
		c0.9,1.1,2.3,1.6,4.1,1.6c1.2,0,2.3-0.2,3.3-0.6l0.1,0v-2.4l-0.2,0.1c-1,0.4-2.1,0.6-3,0.6c-1.9,0-2.9-1.3-2.9-3.9
		c0-1.2,0.3-2.2,0.8-2.9C434.8,23.6,435.5,23.2,436.4,23.2z"/>
	<path class="st0" d="M447.6,20.9c-1.9,0-3.3,0.5-4.3,1.6c-1,1.1-1.5,2.7-1.5,4.7c0,2,0.5,3.5,1.5,4.7c1,1.1,2.4,1.6,4.3,1.6
		c1.9,0,3.3-0.5,4.3-1.6c1-1.1,1.5-2.7,1.5-4.7c0-2-0.5-3.5-1.5-4.7C450.9,21.4,449.5,20.9,447.6,20.9z M445.4,24.3
		c0.4-0.6,1.2-0.9,2.2-0.9c1.9,0,2.9,1.3,2.9,3.9c0,2.6-0.9,3.9-2.9,3.9c-1,0-1.7-0.3-2.2-0.9c-0.5-0.7-0.8-1.7-0.8-2.9
		C444.6,25.9,444.9,24.9,445.4,24.3z"/>
	<path class="st0" d="M464.5,26.8c0,0.6,0,1.6,0.1,3l-5-8.6l0-0.1h-3.4v12.2h2.5v-5.7c0-0.5,0-1.1-0.1-2c0-0.3,0-0.7-0.1-1.1
		l5.1,8.8h3.5V21h-2.6V26.8z"/>
	<polygon class="st0" points="468.9,23.5 472.2,23.5 472.2,33.3 474.9,33.3 474.9,23.5 478.1,23.5 478.1,21.2 468.9,21.2 	"/>
	<polygon class="st0" points="480.2,33.3 487.3,33.3 487.3,31 483,31 483,28.1 487,28.1 487,25.8 483,25.8 483,23.4 487.3,23.4 
		487.3,21.1 480.2,21.1 	"/>
	<path class="st0" d="M495.2,20.3c0.4-0.2,0.9-0.6,1.6-1.2c0.2-0.2,0.4-0.4,0.6-0.5c0.4-0.3,0.7-0.6,0.9-0.8l0,0v-0.4h-3l0,0.1
		c-0.2,0.5-0.8,1.1-1.5,2l-0.5,0.6v0.4L495.2,20.3L495.2,20.3z"/>
	<path class="st0" d="M497.2,28.3c0,0.9-0.2,1.5-0.6,1.9c-0.4,0.4-0.9,0.7-1.7,0.7c-0.8,0-1.3-0.2-1.7-0.6c-0.4-0.4-0.6-1-0.6-1.9
		V21h-2.8v7.8c0,1.4,0.5,2.5,1.3,3.3c0.9,0.8,2.2,1.2,3.7,1.2c0.8,0,1.9-0.1,2.6-0.5c0.8-0.3,1.4-0.9,1.8-1.5
		c0.4-0.6,0.6-1.4,0.6-2.4v-8h-2.8V28.3z"/>
	<path class="st0" d="M506.9,21.1H503v12.2h3.5c2.1,0,3.8-0.5,5-1.6c1.2-1.1,1.7-2.6,1.7-4.6c0-1.9-0.6-3.3-1.7-4.5
		C510.5,21.6,508.9,21.1,506.9,21.1z M506.8,31h-1v-7.5h1.2c2.2,0,3.3,1.2,3.3,3.7C510.3,29.7,509.1,31,506.8,31z"/>
	<path class="st0" d="M521.1,20.9c-1.9,0-3.3,0.5-4.3,1.6c-1,1.1-1.5,2.7-1.5,4.7c0,2,0.5,3.5,1.5,4.7c1,1.1,2.4,1.6,4.3,1.6
		c1.9,0,3.3-0.5,4.3-1.6c1-1.1,1.5-2.7,1.5-4.7c0-2-0.5-3.5-1.5-4.7C524.4,21.4,523,20.9,521.1,20.9z M524.1,27.2
		c0,2.6-0.9,3.9-2.9,3.9c-1,0-1.7-0.3-2.2-0.9c-0.5-0.7-0.8-1.7-0.8-2.9c0-1.5,0.2-2.4,0.8-2.9c0.4-0.6,1.2-0.9,2.2-0.9
		C523.1,23.3,524.1,24.6,524.1,27.2z"/>
</g>
</svg>
